<svg xmlns="http://www.w3.org/2000/svg" xmlns:xlink="http://www.w3.org/1999/xlink" width="840" height="581.04"><rect width="840" height="581.04" rx="5" ry="5" class="a"/><svg y="0%" x="0%"><circle cx="20" cy="20" r="6" fill="#ff5f58"/><circle cx="40" cy="20" r="6" fill="#ffbd2e"/><circle cx="60" cy="20" r="6" fill="#18c132"/></svg><svg height="521.04" viewBox="0 0 80 52.104" width="800" x="15" xmlns="http://www.w3.org/2000/svg" xmlns:xlink="http://www.w3.org/1999/xlink" y="50"><style>@keyframes j{0%{transform:translateX(-80px)}6.8%{transform:translateX(-160px)}8.1%{transform:translateX(-240px)}8.7%{transform:translateX(-320px)}9.3%{transform:translateX(-400px)}9.9%{transform:translateX(-480px)}10.5%{transform:translateX(-560px)}11.1%{transform:translateX(-640px)}11.7%{transform:translateX(-720px)}12.4%{transform:translateX(-800px)}13%{transform:translateX(-880px)}14.2%{transform:translateX(-960px)}21.2%{transform:translateX(-1040px)}32%{transform:translateX(-1200px)}to{transform:translateX(-1280px)}}.a{fill:#282d35}.f{fill:#a8cc8c}.g{fill:#b9c0cb}</style><g font-size="1.67" font-family="Monaco,Consolas,Menlo,'Bitstream Vera Sans Mono','Powerline Symbols',monospace"><defs><symbol id="1"><text y="1.67" class="f">λ</text><text x="2.004" y="1.67" class="g">yarn</text></symbol><symbol id="2"><text y="1.67" class="f">λ</text><text x="2.004" y="1.67" class="g">yarn</text><text x="7.014" y="1.67" class="g">start</text></symbol><symbol id="3"><text y="1.67" class="g">Starting</text><text x="9.018" y="1.67" class="g">the</text><text x="13.026" y="1.67" class="g">development</text><text x="25.05" y="1.67" class="g">server...</text></symbol><symbol id="4"><text y="1.67" class="g">Compiled</text><text x="9.018" y="1.67" class="g">successfully!</text></symbol><symbol id="5"><text y="1.67" class="g">You</text><text x="4.008" y="1.67" class="g">can</text><text x="8.016" y="1.67" class="g">now</text><text x="12.024" y="1.67" class="g">view</text><text x="17.034" y="1.67" class="g">my-extension</text><text x="30.06" y="1.67" class="g">in</text><text x="33.066" y="1.67" class="g">the</text><text x="37.074" y="1.67" class="g">browser.</text></symbol><symbol id="6"><text y="1.67" class="g">Note</text><text x="5.01" y="1.67" class="g">that</text><text x="10.02" y="1.67" class="g">the</text><text x="14.028" y="1.67" class="g">development</text><text x="26.052" y="1.67" class="g">build</text><text x="32.064" y="1.67" class="g">is</text><text x="35.07" y="1.67" class="g">not</text><text x="39.078" y="1.67" class="g">optimized.</text></symbol><symbol id="7"><text y="1.67" class="g">To</text><text x="3.006" y="1.67" class="g">create</text><text x="10.02" y="1.67" class="g">a</text><text x="12.024" y="1.67" class="g">production</text><text x="23.046" y="1.67" class="g">build,</text><text x="30.06" y="1.67" class="g">use</text><text x="34.068" y="1.67" class="g">yarn</text><text x="39.078" y="1.67" class="g">build.</text></symbol><symbol id="a"><path fill="transparent" d="M0 0h80v24H0z"/></symbol><symbol id="b"><path fill="#6f7683" d="M0 0h1.102v2.171H0z"/></symbol></defs><path class="a" d="M0 0h80v52.104H0z"/><g style="animation-duration:14.72948s;animation-iteration-count:infinite;animation-name:j;animation-timing-function:steps(1,end)"><svg width="1360"><svg><use xlink:href="#a"/><use xlink:href="#b" x="-.004"/></svg><svg x="80"><use xlink:href="#a"/><use xlink:href="#b" x="1.996"/><text y="1.67" class="f">λ</text></svg><svg x="160"><use xlink:href="#a"/><use xlink:href="#b" x="2.996"/><text y="1.67" class="f">λ</text><text x="2.004" y="1.67" class="g">y</text></svg><svg x="240"><use xlink:href="#a"/><use xlink:href="#b" x="3.996"/><text y="1.67" class="f">λ</text><text x="2.004" y="1.67" class="g">ya</text></svg><svg x="320"><use xlink:href="#a"/><use xlink:href="#b" x="4.996"/><text y="1.67" class="f">λ</text><text x="2.004" y="1.67" class="g">yar</text></svg><svg x="400"><use xlink:href="#a"/><use xlink:href="#b" x="5.996"/><use xlink:href="#1"/></svg><svg x="480"><use xlink:href="#a"/><use xlink:href="#b" x="6.996"/><use xlink:href="#1"/></svg><svg x="560"><use xlink:href="#a"/><use xlink:href="#b" x="7.996"/><text y="1.67" class="f">λ</text><text x="2.004" y="1.67" class="g">yarn</text><text x="7.014" y="1.67" class="g">s</text></svg><svg x="640"><use xlink:href="#a"/><use xlink:href="#b" x="8.996"/><text y="1.67" class="f">λ</text><text x="2.004" y="1.67" class="g">yarn</text><text x="7.014" y="1.67" class="g">st</text></svg><svg x="720"><use xlink:href="#a"/><use xlink:href="#b" x="9.996"/><text y="1.67" class="f">λ</text><text x="2.004" y="1.67" class="g">yarn</text><text x="7.014" y="1.67" class="g">sta</text></svg><svg x="800"><use xlink:href="#a"/><use xlink:href="#b" x="10.996"/><text y="1.67" class="f">λ</text><text x="2.004" y="1.67" class="g">yarn</text><text x="7.014" y="1.67" class="g">star</text></svg><svg x="880"><use xlink:href="#a"/><use xlink:href="#b" x="11.996"/><use xlink:href="#2"/></svg><svg x="960"><use xlink:href="#a"/><use xlink:href="#b" x="-.004" y="2.146"/><use xlink:href="#2"/></svg><svg x="1040"><use xlink:href="#a"/><use xlink:href="#b" x="-.004" y="6.488"/><use xlink:href="#2"/><use xlink:href="#3" y="2.171"/></svg><svg x="1120"><use xlink:href="#a"/><use xlink:href="#b" x="-.004" y="8.659"/><use xlink:href="#2"/><use xlink:href="#3" y="2.171"/><use xlink:href="#4" y="6.513"/></svg><svg x="1200"><use xlink:href="#a"/><use xlink:href="#b" x="-.004" y="23.856"/><use xlink:href="#2"/><use xlink:href="#3" y="2.171"/><use xlink:href="#4" y="6.513"/><use xlink:href="#5" y="10.855"/><use xlink:href="#6" y="17.368"/><use xlink:href="#7" y="19.539"/></svg><svg x="1280"><use xlink:href="#a"/><use xlink:href="#b" x="-.004" y="26.027"/><use xlink:href="#2"/><use xlink:href="#3" y="2.171"/><use xlink:href="#4" y="6.513"/><use xlink:href="#5" y="10.855"/><use xlink:href="#6" y="17.368"/><use xlink:href="#7" y="19.539"/></svg></svg></g></g></svg></svg>